{"title":"This.Is.England.86.S01E04.720p.HDTV.x264-BiA","uid":9517888,"size":1170423717,"categoryP":"video","categoryS":"hd___tv_shows","magnet":"?xt=urn:btih:ee9651b66ec1f254625c530e1af6e68eabcc44df&amp;dn=This.Is.England.86.S01E04.720p.HDTV.x264-BiA&amp;tr=udp%3A%2F%2Ftracker.openbittorrent.com%3A80&amp;tr=udp%3A%2F%2Fopen.demonii.com%3A1337&amp;tr=udp%3A%2F%2Ftracker.coppersurfer.tk%3A6969&amp;tr=udp%3A%2F%2Fexodus.desync.com%3A6969","seeders":1,"leechers":0,"uploader":"kanaille","files":-1,"time":1390522218,"description":"This Is England '86 is a 2010 British drama series written by Shane Meadows and Jack Thorne. A spin-off from the 2006 film This Is England, and set three years later, it focuses on the mod revival scene rather than the skinhead subculture. Like the film, This Is England '86 stars Thomas Turgoose as Shaun, although Lol (Vicky McClure) and Woody (Joe Gilgun) play even more central roles.\n\n\n\n#############\n\nGeneral\nUnique ID                                : 189646214729619774464284101939971389851 (0x8EAC8849F939E79D9D459AF67BFE799B)\nComplete name                            : this.is.england.86.s01e04.720p.hdtv.x264-bia.mkv\nFormat                                   : Matroska\nFormat version                           : Version 2\nFile size                                : 1.09 GiB\nDuration                                 : 47mn 58s\nOverall bit rate                         : 3 252 Kbps\nEncoded date                             : UTC 2010-09-28 22:07:06\nWriting application                      : mkvmerge v2.9.5 ('Tu es le seul') built on Jun 17 2009 16:28:30\nWriting library                          : libebml v0.7.8 + libmatroska v0.8.1\n\nVideo\nID                                       : 1\nFormat                                   : AVC\nFormat/Info                              : Advanced Video Codec\nFormat profile                           : &lt;a class=&quot;__cf_email__&quot; href=&quot;/cdn-cgi/l/email-protection&quot; data-cfemail=&quot;fab2939d92bab6c9d4cb&quot;&gt;[email&amp;#160;protected]&lt;/a&gt;&lt;script cf-hash='f9e31' type=&quot;text/javascript&quot;&gt;\n/* &lt;![CDATA[ */!function(){try{var t=&quot;currentScript&quot;in document?document.currentScript:function(){for(var t=document.getElementsByTagName(&quot;script&quot;),e=t.length;e--;)if(t[e].getAttribute(&quot;cf-hash&quot;))return t[e]}();if(t&amp;&amp;t.previousSibling){var e,r,n,i,c=t.previousSibling,a=c.getAttribute(&quot;data-cfemail&quot;);if(a){for(e=&quot;&quot;,r=parseInt(a.substr(0,2),16),n=2;a.length-n;n+=2)i=parseInt(a.substr(n,2),16)^r,e+=String.fromCharCode(i);e=document.createTextNode(e),c.parentNode.replaceChild(e,c)}}}catch(u){}}();/* ]]&gt; */&lt;/script&gt;\nFormat settings, CABAC                   : Yes\nFormat settings, ReFrames                : 4 frames\nCodec ID                                 : V_MPEG4/ISO/AVC\nDuration                                 : 47mn 58s\nBit rate                                 : 2 874 Kbps\nWidth                                    : 1 280 pixels\nHeight                                   : 720 pixels\nDisplay aspect ratio                     : 16:9\nFrame rate mode                          : Constant\nFrame rate                               : 25.000 fps\nColor space                              : YUV\nChroma subsampling                       : 4:2:0\nBit depth                                : 8 bits\nScan type                                : Progressive\nBits/(Pixel*Frame)                       : 0.125\nStream size                              : 962 MiB (86%)\nWriting library                          : x264 core 105 r1724 b02df7b\nEncoding settings                        : cabac=1 / ref=3 / deblock=1:0:0 / analyse=0x3:0x113 / me=hex / subme=6 / psy=1 / psy_rd=1.00:0.00 / mixed_ref=0 / me_range=16 / chroma_me=1 / trellis=1 / 8x8dct=1 / cqm=0 / deadzone=21,11 / fast_pskip=0 / chroma_qp_offset=-2 / threads=18 / sliced_threads=0 / nr=0 / decimate=1 / interlaced=0 / constrained_intra=0 / bframes=3 / b_pyramid=2 / b_adapt=1 / b_bias=0 / direct=3 / weightb=1 / open_gop=0 / weightp=0 / keyint=250 / keyint_min=25 / scenecut=40 / intra_refresh=0 / rc=2pass / mbtree=0 / bitrate=2874 / ratetol=1.0 / qcomp=0.60 / qpmin=10 / qpmax=51 / qpstep=4 / cplxblur=20.0 / qblur=0.5 / ip_ratio=1.40 / pb_ratio=1.30 / aq=1:1.00\nDefault                                  : Yes\nForced                                   : No\n\nAudio\nID                                       : 2\nFormat                                   : AC-3\nFormat/Info                              : Audio Coding 3\nMode extension                           : CM (complete main)\nFormat settings, Endianness              : Big\nCodec ID                                 : A_AC3\nDuration                                 : 47mn 58s\nBit rate mode                            : Constant\nBit rate                                 : 384 Kbps\nChannel count                            : 6 channels\nChannel positions                        : Front: L C R, Side: L R, LFE\nSampling rate                            : 48.0 KHz\nBit depth                                : 16 bits\nCompression mode                         : Lossy\nStream size                              : 132 MiB (12%)\nLanguage                                 : English\nDefault                                  : Yes\nForced                                   : No","torrent":{"xt":"urn:btih:ee9651b66ec1f254625c530e1af6e68eabcc44df","amp;dn":"This.Is.England.86.S01E04.720p.HDTV.x264-BiA","amp;tr":["udp%3A%2F%2Ftracker.openbittorrent.com%3A80","udp%3A%2F%2Fopen.demonii.com%3A1337","udp%3A%2F%2Ftracker.coppersurfer.tk%3A6969","udp%3A%2F%2Fexodus.desync.com%3A6969"],"infoHash":"ee9651b66ec1f254625c530e1af6e68eabcc44df","infoHashBuffer":{"type":"Buffer","data":[238,150,81,182,110,193,242,84,98,92,83,14,26,246,230,142,171,204,68,223]},"announce":[],"urlList":[]}}